PathFileType	4	(X/Y/Z)	Walk8.trc
DataRate	CameraRate	NumFrames	NumMarkers	Units	OrigDataRate	OrigDataStartFrame	OrigNumFrames
200.000000	200.000000	5	59	mm	200.000000	538	625
Frame#	Times		LFHD		RFHD		CLAV		STRN		LASI		RASI		RACR1		RUA1		RElbow		RFA1		RWRR		RWRU		RCAR		LACR1		LUA1		LElbow		LFA1		LWRR		RTB1		RTB2		LTH1		LTH3		LTH2		LMFC		LTB1		LTB2		LMT1		RTH2		LTB4		LLFC		LCAR		LWRU		LTB3		LMT5		LToe		RTB4		RTH3		RTB3		RMFC		LTH4		RTH1		RTH4		RMMAL		RBHD		RElbowM		RLFC		RToe		RBack		RMT1		RCAL		LLMAL		LElbowM		LMMAL		RPSI		C7		T10		LPSI		LBHD		LCAL
			X1	Y1	Z1	X2	Y2	Z2	X3	Y3	Z3	X4	Y4	Z4	X5	Y5	Z5	X6	Y6	Z6	X7	Y7	Z7	X8	Y8	Z8	X9	Y9	Z9	X10	Y10	Z10	X11	Y11	Z11	X12	Y12	Z12	X13	Y13	Z13	X14	Y14	Z14	X15	Y15	Z15	X16	Y16	Z16	X17	Y17	Z17	X18	Y18	Z18	X19	Y19	Z19	X20	Y20	Z20	X21	Y21	Z21	X22	Y22	Z22	X23	Y23	Z23	X24	Y24	Z24	X25	Y25	Z25	X26	Y26	Z26	X27	Y27	Z27	X28	Y28	Z28	X29	Y29	Z29	X30	Y30	Z30	X31	Y31	Z31	X32	Y32	Z32	X33	Y33	Z33	X34	Y34	Z34	X35	Y35	Z35	X36	Y36	Z36	X37	Y37	Z37	X38	Y38	Z38	X39	Y39	Z39	X40	Y40	Z40	X41	Y41	Z41	X42	Y42	Z42	X43	Y43	Z43	X44	Y44	Z44	X45	Y45	Z45	X46	Y46	Z46	X47	Y47	Z47	X48	Y48	Z48	X49	Y49	Z49	X50	Y50	Z50	X51	Y51	Z51	X52	Y52	Z52	X53	Y53	Z53	X54	Y54	Z54	X55	Y55	Z55	X56	Y56	Z56	X57	Y57	Z57	X58	Y58	Z58	X59	Y59	Z59

538	2.69	1204.5	1645	25.934	1205	1627.4	-71.605	1212.2	1382.4	18.628	1280.3	1227.2	34.64	1167.5	959.19	-129.98	1160.8	968.34	226.33	1094.3	1482.4	181.2	1082.3	1324.1	314.24	1103.9	1183	374.94	1173.1	1049.9	383.47	1221.6	945.37	307.56	1220.7	946.38	389.73	1271.4	874.09	350.26	1095.5	1429.1	-166.19	1031.5	1260.1	-238.15	980.65	1101.3	-274.21	971.9	960.08	-279.83	998.3	831.05	-216.8	938.23	344.82	175.93	851.66	308.13	223.03	1158	752.26	-156.66	1219.3	594.78	-129.93	1240.4	697.4	-130.18	1257	513.71	27.631	1316.5	402.78	-65.76	1286.9	307.84	-97.95	1396.5	35.85	-16.312	1073.9	666.06	247.88	1319.5	320.6	-45.52	1227	511.57	-127.18	984.62	742.06	-245.76	948.83	822.91	-271.89	1313.8	234.98	-28.049	1324.6	25.322	-89.053	1442.2	36.745	-57.038	869.26	293.33	166.14	1010.5	582.85	253.4	800.68	242.26	155.83	981.69	471.41	91.917	1186.6	673.96	-142.14	1021.4	754.46	267.06	1017.1	668.06	259.71	676.15	182.08	92.473	1056.4	1545.1	-71.094	1060.4	1100.7	283.57	966.16	478.78	246.56	739.57	25.42	153.72	951.72	1355.5	142.78	706.34	46.855	114.3	588.53	227.27	124.22	1231.7	72.68	-19.653	916.16	1065.3	-173.37	1265.2	84.872	63.441	902.08	1008.6	76.071	1015	1460.9	11.779	948.64	1146.8	41.837	918.57	1012.1	-7.7355	1071.1	1576.8	75.201	1189.1	45.097	41.814
539	2.695	1211.3	1646.2	24.841	1211.7	1628.5	-72.67	1218.8	1383.7	17.566	1286.8	1228.5	33.659	1173.7	960.34	-131.24	1167.8	969.55	224.89	1101	1483.8	180.22	1088.8	1325.6	313.31	1110	1184.3	373.75	1178.3	1050.5	382.7	1225.9	945.44	307	1225	946.67	389.17	1274.9	873.68	349.84	1102	1430.3	-167.08	1038.7	1260.9	-238.98	988.72	1101.8	-275.02	981.17	960.57	-280.73	1008.9	831.68	-217.98	950.09	345.54	176.75	863.02	310.12	224.01	1163	752.7	-157.33	1223.1	594.81	-130.34	1245	697.27	-130.89	1260.8	513.72	27.352	1319.1	402.21	-65.942	1288.9	307.43	-98.049	1396.7	35.742	-16.204	1084.5	666.96	247.84	1321.5	320.03	-45.616	1230.4	511.59	-127.45	996.17	742.79	-247.44	959.37	823.27	-272.93	1315.3	234.48	-28.029	1324.6	25.436	-89.055	1442.7	35.962	-57.065	880.33	295.09	167.04	1022.3	582.9	253.91	810.96	245.02	156.85	995.19	470.96	92.634	1191	674.19	-142.6	1030.9	754.74	266.72	1027.7	668.23	259.86	685.35	186.82	93.633	1063	1546.4	-72.075	1066.3	1102.3	282.57	979.1	478.91	247.36	744.17	25.965	154.44	958.43	1356.9	141.96	712.19	49.952	114.94	598.86	233.93	125.65	1232	72.76	-19.533	924.89	1065.2	-173.92	1265.5	84.778	63.603	908.78	1009.5	75.485	1021.8	1462.2	10.825	955.24	1148.1	40.937	925.1	1013.6	-8.5364	1077.9	1578.1	74.208	1189.2	45.259	41.89
540	2.7	1218	1647.4	23.83	1218.4	1629.7	-73.659	1225.4	1385.1	16.551	1293.3	1229.7	32.683	1179.9	961.47	-132.49	1174.8	970.78	223.47	1107.7	1485.2	179.3	1095.2	1327	312.42	1116	1185.6	372.61	1183.4	1051.2	381.96	1230	945.48	306.48	1229.3	946.94	388.64	1278.4	873.25	349.45	1108.5	1431.5	-167.93	1045.9	1261.7	-239.81	996.82	1102.4	-275.85	990.49	961.1	-281.64	1019.6	832.39	-219.14	962.2	346.37	177.44	874.73	312.08	224.89	1168	753.17	-157.99	1226.9	594.88	-130.74	1249.6	697.17	-131.53	1264.4	513.7	27.075	1321.6	401.67	-66.122	1290.9	307.03	-98.157	1396.8	35.676	-16.136	1095.1	667.96	247.8	1323.4	319.5	-45.719	1233.7	511.62	-127.74	1007.9	743.62	-249.11	970	823.67	-273.94	1316.6	234	-28.022	1324.7	25.535	-89.062	1443.2	35.239	-57.135	891.7	296.91	167.82	1034.2	583.04	254.39	821.59	247.78	157.73	1008.8	470.67	93.285	1195.4	674.45	-143.07	1040.4	755.07	266.38	1038.4	668.47	259.99	694.97	191.47	94.715	1069.7	1547.8	-73.002	1072	1103.8	281.61	992.18	479.11	248.12	749.66	26.76	155.24	965.09	1358.3	141.13	718.84	53.175	115.67	609.52	240.28	127.07	1232.3	72.842	-19.435	933.64	1065.2	-174.52	1265.8	84.702	63.738	915.42	1010.4	74.885	1028.5	1463.5	9.9057	961.79	1149.4	40.035	931.58	1015	-9.3421	1084.6	1579.5	73.283	1189.4	45.412	41.957
541	2.705	1224.8	1648.6	22.898	1225	1630.9	-74.574	1231.9	1386.4	15.582	1299.8	1230.9	31.712	1186	962.59	-133.71	1181.6	972.02	222.08	1114.4	1486.5	178.43	1101.5	1328.4	311.57	1122.1	1186.8	371.5	1188.4	1051.8	381.24	1234.2	945.48	306	1233.5	947.2	388.15	1281.9	872.81	349.11	1115	1432.7	-168.75	1053.2	1262.6	-240.64	1005	1102.9	-276.71	999.89	961.66	-282.56	1030.4	833.15	-220.3	974.55	347.32	178	886.75	314.01	225.66	1173	753.69	-158.62	1230.6	594.97	-131.13	1254	697.08	-132.12	1267.7	513.64	26.8	1324	401.14	-66.301	1292.7	306.65	-98.274	1397	35.642	-16.102	1105.8	669.05	247.77	1325.2	318.98	-45.829	1236.8	511.66	-128.03	1019.7	744.52	-250.75	980.71	824.11	-274.93	1317.9	233.55	-28.025	1324.7	25.618	-89.076	1443.6	34.567	-57.244	903.36	298.79	168.45	1046.2	583.29	254.84	832.59	250.54	158.47	1022.5	470.58	93.876	1199.6	674.74	-143.53	1049.9	755.46	266.04	1049.2	668.8	260.11	705	195.98	95.718	1076.3	1549.2	-73.874	1077.7	1105.3	280.7	1005.4	479.4	248.83	756.08	27.824	156.1	971.69	1359.7	140.29	726.34	56.482	116.48	620.49	246.25	128.44	1232.6	72.925	-19.359	942.41	1065.1	-175.16	1266.1	84.643	63.848	922	1011.4	74.274	1035.2	1464.8	9.0251	968.3	1150.7	39.141	938.01	1016.5	-10.149	1091.4	1580.9	72.424	1189.5	45.559	42.015
542	2.71	1231.5	1649.8	22.041	1231.6	1632.1	-75.418	1238.4	1387.6	14.658	1306.2	1232.1	30.746	1192.1	963.7	-134.9	1188.3	973.29	220.72	1121.1	1487.8	177.62	1107.8	1329.8	310.74	1128.1	1188	370.44	1193.5	1052.4	380.56	1238.2	945.46	305.56	1237.7	947.43	387.7	1285.3	872.37	348.83	1121.4	1434	-169.53	1060.4	1263.5	-241.47	1013.1	1103.5	-277.59	1009.3	962.24	-283.48	1041.3	833.98	-221.44	987.1	348.39	178.43	899.08	315.9	226.34	1177.8	754.23	-159.24	1234.3	595.08	-131.52	1258.5	697	-132.66	1270.9	513.56	26.526	1326.3	400.63	-66.48	1294.5	306.29	-98.399	1397.1	35.629	-16.096	1116.6	670.25	247.73	1326.9	318.49	-45.946	1239.9	511.7	-128.32	1031.6	745.49	-252.36	991.5	824.57	-275.89	1319.1	233.13	-28.04	1324.8	25.685	-89.095	1444	33.942	-57.385	915.31	300.73	168.97	1058.2	583.65	255.25	843.93	253.27	159.07	1036.3	470.69	94.414	1203.9	675.06	-144	1059.5	755.93	265.71	1059.9	669.22	260.22	715.46	200.32	96.638	1082.8	1550.6	-74.689	1083.4	1106.7	279.83	1018.7	479.8	249.49	763.5	29.164	157.01	978.25	1361.1	139.44	734.71	59.826	117.36	631.76	251.8	129.74	1232.9	73.008	-19.3	951.19	1065.1	-175.85	1266.3	84.601	63.935	928.54	1012.4	73.656	1041.8	1466.1	8.1861	974.75	1152.1	38.262	944.38	1018	-10.951	1098	1582.3	71.633	1189.6	45.703	42.065
